<svg width="32" height="28" viewBox="0 0 32 28" fill="none" xmlns="http://www.w3.org/2000/svg">
<path d="M17.7394 0.0513319C17.4902 0.155297 17.3275 0.397903 17.3275 0.667126L17.3275 7.97L0.666464 7.97C0.298587 7.97 -8.60887e-07 8.26859 -8.44806e-07 8.63646L-3.78706e-07 19.2996C-3.62626e-07 19.6675 0.298587 19.9661 0.666465 19.9661L17.3276 19.9661L17.3276 27.2969C17.3276 27.5661 17.4902 27.8087 17.7381 27.9127C17.9874 28.0154 18.274 27.9594 18.4646 27.7688L31.8041 14.4732C31.9294 14.3479 32.0001 14.1786 32.0001 14.0014C32.0001 13.8241 31.9294 13.6548 31.8054 13.5295L18.4659 0.195283C18.2752 0.00465907 17.9887 -0.0526334 17.7394 0.0513319Z" fill="url(#paint0_linear_28_711)"/>
<defs>
<linearGradient id="paint0_linear_28_711" x1="-8.25809" y1="27.9634" x2="3.18975" y2="-32.1282" gradientUnits="userSpaceOnUse">
<stop stop-color="#647B64"/>
<stop offset="1" stop-color="#6ADD6A"/>
</linearGradient>
</defs>
</svg>
